PathFileType	4	(X/Y/Z)	c:/Users/goper/Files/vsCode/490R/osim_files/A06/A06_SSWS_06.trc
DataRate	CameraRate	NumFrames	NumMarkers	Units                	OrigDataRate	OrigDataStartFrame	OrigNumFrames
120.00	120.00	5	36	mm	120.0	869	1390
                Frame#	Time	LPSIS			LASIS			LTH1			LTH2			LTH3			LTH4			LLFE			LMFE			LSH1			LSH2			LSH3			LSH4			LLMAL			LMMAL			LCAL			LMTP5			LTOE			LMTP1			RPSIS			RASIS			RTH1			RTH2			RTH3			RTH4			RLFE			RMFE			RSH1			RSH2			RSH3			RSH4			RLMAL			RMMAL			RCAL			RMTP1			RTOE			RMTP5		
		X1	Y1	Z1	X2	Y2	Z2	X3	Y3	Z3	X4	Y4	Z4	X5	Y5	Z5	X6	Y6	Z6	X7	Y7	Z7	X8	Y8	Z8	X9	Y9	Z9	X10	Y10	Z10	X11	Y11	Z11	X12	Y12	Z12	X13	Y13	Z13	X14	Y14	Z14	X15	Y15	Z15	X16	Y16	Z16	X17	Y17	Z17	X18	Y18	Z18	X19	Y19	Z19	X20	Y20	Z20	X21	Y21	Z21	X22	Y22	Z22	X23	Y23	Z23	X24	Y24	Z24	X25	Y25	Z25	X26	Y26	Z26	X27	Y27	Z27	X28	Y28	Z28	X29	Y29	Z29	X30	Y30	Z30	X31	Y31	Z31	X32	Y32	Z32	X33	Y33	Z33	X34	Y34	Z34	X35	Y35	Z35	X36	Y36	Z36

869	7.23333	-1129.93335	976.91870	322.22226	-1321.40930	930.87769	394.28528	-1226.32312	556.22504	434.53708	-1233.65063	513.61090	431.48312	-1291.09668	555.09674	429.02362	-1286.24927	511.65652	427.34009	-1248.86963	440.29993	420.21814	-1260.20801	432.65305	309.28754	-1141.70972	419.93716	429.70233	-1110.29834	385.96359	435.92151	-1182.41394	373.10254	426.17145	-1148.05786	348.73853	429.34540	-914.11176	233.30516	394.48126	-937.70740	213.41707	316.19348	-880.34393	282.13974	336.99252	-911.55994	106.89246	420.86792	-951.21960	77.45136	371.98700	-936.26477	90.85566	331.58926	-1133.24475	992.91260	190.77261	-1310.73560	957.99701	135.38684	-1233.12073	576.72156	102.22038	-1244.44714	535.08911	103.46031	-1294.93835	586.59943	109.79072	-1297.48889	542.86212	107.34067	-1284.44934	426.08771	133.25458	-1287.83398	431.26370	222.74866	-1283.69409	269.93866	152.53250	-1291.07422	222.67365	156.62433	-1343.70190	273.83762	163.59497	-1343.77808	225.82477	161.19098	-1313.05151	95.82264	153.04688	-1326.76807	104.57743	235.93964	-1259.54419	77.99069	203.15701	-1460.80176	60.29205	228.76813	-1475.30164	72.17915	187.62206	-1447.47388	53.48439	140.62494
870	7.24167	-1138.68994	979.07770	320.81406	-1329.84497	932.80414	394.15033	-1242.94238	557.27496	433.11646	-1251.41211	514.82562	429.94067	-1307.75244	557.83649	427.84647	-1304.03857	514.34088	425.95789	-1268.54895	442.47720	418.69473	-1279.97058	435.25568	307.28836	-1161.82092	423.21332	427.73697	-1130.11804	389.33142	434.04089	-1202.14404	375.97992	424.30057	-1167.61401	351.88297	427.44632	-933.43457	237.68776	392.69312	-956.35669	217.68474	314.43845	-898.26160	285.62521	335.08176	-933.26514	111.70844	420.08994	-973.47913	82.58788	370.97183	-957.29187	95.21077	330.63580	-1142.69482	994.75641	189.36150	-1320.93640	959.39166	134.74127	-1238.31335	578.10773	102.15553	-1249.78906	536.35535	103.23887	-1300.75635	587.33478	109.53264	-1302.92578	543.52722	107.27980	-1288.53857	426.91937	133.09401	-1292.08228	432.08432	222.62888	-1286.11560	270.76218	152.45937	-1293.04016	223.42870	156.56731	-1346.25989	274.12115	163.50560	-1345.83142	226.10939	161.20372	-1313.31775	96.15500	153.18077	-1327.19995	104.65161	236.03754	-1259.72754	78.31329	203.28392	-1460.98047	59.85371	228.90512	-1475.60986	71.77414	187.67549	-1447.69165	53.24123	140.74054
871	7.25000	-1147.39929	981.31073	319.29660	-1338.08044	934.68921	394.11865	-1259.64612	558.89404	431.65381	-1269.06506	516.68933	428.43732	-1324.40967	561.44629	426.92081	-1321.66455	517.54913	424.57062	-1287.98779	445.48050	417.23422	-1299.64648	438.28360	305.37750	-1181.85754	426.66162	425.60297	-1149.91589	392.95422	432.13126	-1222.07520	379.22717	422.43655	-1187.31348	355.24600	425.70621	-952.88373	241.47527	391.38504	-975.98712	221.12061	312.51718	-916.94574	287.47812	333.27673	-955.62134	115.23702	418.89685	-995.94080	86.45488	369.61734	-979.05450	98.63470	329.28333	-1151.89526	996.56268	187.85999	-1331.10608	960.58386	134.28662	-1244.20215	579.42322	101.93389	-1255.05347	537.55426	103.04807	-1306.71765	588.02972	109.34717	-1308.25012	544.11707	107.10014	-1292.70923	427.76587	132.96259	-1296.21558	432.96445	222.49214	-1289.18188	271.13196	152.57904	-1295.02112	224.24037	156.56107	-1348.74670	274.36005	163.52917	-1347.77490	226.38420	161.16234	-1312.63159	95.79547	153.06606	-1327.57397	104.81000	236.17848	-1259.89062	78.58134	203.37312	-1461.17883	59.49530	229.00461	-1475.88403	71.43409	187.77020	-1447.85522	53.06924	140.83167
872	7.25833	-1156.00793	983.57050	317.83234	-1346.21680	936.83624	394.14487	-1276.21472	561.01294	430.34198	-1286.64990	519.02600	426.99112	-1340.87512	565.02545	425.51324	-1339.13440	521.11102	423.17361	-1306.96887	449.02832	415.92294	-1319.03955	442.21613	303.80591	-1202.04688	429.92511	423.49274	-1169.88147	396.35776	430.30719	-1241.87585	382.37646	420.79791	-1207.18982	358.50784	424.12823	-972.62317	243.34947	389.67029	-997.00330	224.06984	310.03949	-935.34247	288.77866	331.77637	-978.29254	117.44215	417.31735	-1019.14465	89.37222	367.96118	-1001.97534	101.25850	327.63962	-1161.27356	998.41510	186.39952	-1340.72827	961.64398	134.05884	-1249.88391	580.75739	101.78064	-1260.37292	538.81348	102.97493	-1312.08826	588.54578	109.24431	-1313.71375	544.80640	106.91625	-1296.83679	428.56165	132.93285	-1300.22144	433.78967	222.41661	-1291.62695	272.05408	152.57100	-1296.90332	225.06969	156.52852	-1351.26465	274.64709	163.52036	-1349.77454	226.66443	161.21347	-1314.39648	96.72313	153.78397	-1328.58411	105.45263	237.12798	-1259.93823	78.88087	203.43428	-1461.49634	59.56694	229.49303	-1476.14502	71.14775	187.84367	-1448.00415	52.92462	140.89380
873	7.26667	-1164.69031	985.68823	316.33536	-1354.20764	938.70697	394.00839	-1292.53662	563.44800	429.17404	-1304.08838	521.69366	425.72021	-1357.30566	568.94476	424.17410	-1356.70410	525.49146	422.13260	-1325.73804	452.66162	414.71695	-1337.99866	445.98047	302.34589	-1221.86548	432.79788	421.96100	-1189.94446	399.03171	428.90109	-1261.95081	385.22235	419.21106	-1227.30603	361.28876	422.70526	-993.60712	243.70670	387.51779	-1017.98743	225.21167	308.28793	-954.77954	288.83313	330.14062	-1002.95007	119.24496	415.63297	-1042.95044	91.40643	366.07297	-1025.58606	102.98586	325.70917	-1170.42371	1000.21112	184.95341	-1350.31384	962.58704	134.01585	-1255.80896	581.83344	101.84364	-1265.66516	539.94507	102.84680	-1318.22449	589.19122	109.13223	-1318.99817	545.53094	106.86340	-1300.90210	429.37482	132.89148	-1304.20703	434.58435	222.37526	-1294.07959	272.96582	152.55978	-1298.88135	225.85852	156.51636	-1353.79333	274.88110	163.58344	-1351.76196	226.98068	161.25833	-1314.27600	96.83171	153.88197	-1328.87720	105.60645	237.22313	-1260.05994	79.13720	203.56401	-1461.68726	59.28872	229.52347	-1476.41748	70.83723	187.94524	-1448.12524	52.80237	140.98270
